:FULLY-SPECIFIED
:FORCE-ALL-JOINTS-BE-3DOF
:DEGREES
3058
root -1.58731 15.946 -34.1902 1087.69 2.4641 1.70624
lfemur -35.0393 4.71243 -2.60174
ltibia 54.9287 -0 0
lfoot -10.8345 -2.12778 0.0224522
ltoes -44.1196 0 0
rfemur -36.8076 -5.4728 25.0963
rtibia 61.8058 -0 0
rfoot -22.7848 -25.5719 0.0102294
rtoes -4.12032 0 0
lowerback 12.8795 0.493811 -2.02793
upperback -1.02308 0.475529 1.60874
thorax -8.37357 0.363227 2.77118
lowerneck 4.05942 -8.88123 -12.3564
upperneck -3.60522 -12.211 10.1102
head -0.331757 -6.17191 5.029
lclavicle -1.88845e-15 7.95139e-16 0
lhumerus 14.3549 -43.1378 87.0634
lradius 70.0501 0 0
lwrist -13.471 0 0
lhand -24.7865 394.125 0
lfingers 7.12502 0 0
lthumb 1.71774 -655.903 0
rclavicle -1.88845e-15 7.95139e-16 0
rhumerus 22.4209 47.2452 -46.897
rradius 105.078 0 0
rwrist -42.0761 0 0
rhand -7.77833 -389.013 0
rfingers 7.12502 0 0
rthumb 18.1221 301.811 0
3059
root -1.54877 15.9467 -34.1682 1087.59 2.9519 1.71828
lfemur -34.893 4.57054 -2.74475
ltibia 54.6846 -0 0
lfoot -11.2686 -2.19362 0.0199565
ltoes -44.4892 0 0
rfemur -36.6146 -5.26614 24.8727
rtibia 61.8227 -0 0
rfoot -22.5928 -25.5109 0.0122756
rtoes -4.53365 0 0
lowerback 12.8299 0.41164 -1.93538
upperback -1.01466 0.377035 1.55831
thorax -8.3283 0.309334 2.68387
lowerneck 3.92246 -8.70378 -12.1656
upperneck -3.51968 -11.9539 9.99686
head -0.331891 -6.04083 4.96528
lclavicle 1.04362e-14 -1.59028e-15 0
lhumerus 13.0836 -42.9162 87.5826
lradius 70.3055 0 0
lwrist -15.6146 0 0
lhand -23.9659 393.676 0
lfingers 7.12502 0 0
lthumb 2.51027 -656.359 0
rclavicle 1.04362e-14 -1.59028e-15 0
rhumerus 21.0019 47.9072 -47.9497
rradius 105.568 0 0
rwrist -41.9009 0 0
rhand -7.97279 -389.19 0
rfingers 7.12502 0 0
rthumb 17.935 301.617 0
3060
root -1.5088 15.9498 -34.1449 1087.47 3.47583 1.83022
lfemur -34.7464 4.42902 -2.8881
ltibia 54.4404 -0 0
lfoot -11.7027 -2.25945 0.016962
ltoes -44.8588 0 0
rfemur -36.4225 -5.05873 24.6499
rtibia 61.8397 -0 0
rfoot -22.4008 -25.4498 0.0141172
rtoes -4.94698 0 0
lowerback 12.7869 0.33833 -1.92418
upperback -1.00768 0.277606 1.50822
thorax -8.2894 0.258805 2.64327
lowerneck 3.7991 -8.5415 -12.0987
upperneck -3.40522 -11.7252 9.95279
head -0.31024 -5.9245 4.93925
lclavicle -6.85807e-15 7.95139e-16 0
lhumerus 11.966 -42.803 88.082
lradius 70.5494 0 0
lwrist -17.3503 0 0
lhand -23.2071 393.772 0
lfingers 7.12502 0 0
lthumb 3.24307 -656.273 0
rclavicle -6.85807e-15 7.95139e-16 0
rhumerus 19.5294 48.5532 -48.949
rradius 106.049 0 0
rwrist -41.482 0 0
rhand -7.90613 -389.066 0
rfingers 7.12502 0 0
rthumb 17.9992 301.747 0
3061
root -1.47241 15.9537 -34.1229 1087.36 4.01931 1.86819
lfemur -34.5995 4.28786 -3.03178
ltibia 54.1962 -0 0
lfoot -12.1368 -2.32525 0.0134689
ltoes -45.2285 0 0
rfemur -36.2313 -4.85058 24.4278
rtibia 61.8566 -0 0
rfoot -22.2089 -25.3888 0.0157542
rtoes -5.36031 0 0
lowerback 12.7428 0.274619 -1.88107
upperback -1.01374 0.197986 1.48254
thorax -8.26542 0.217409 2.60675
lowerneck 3.75661 -8.40825 -11.9416
upperneck -3.32943 -11.5401 9.8082
head -0.319514 -5.83039 4.87393
lclavicle -2.28602e-15 -1.82882e-14 0
lhumerus 10.894 -42.917 88.5414
lradius 70.7103 0 0
lwrist -18.9881 0 0
lhand -23.1346 394.98 0
lfingers 7.12502 0 0
lthumb 3.31307 -655.066 0
rclavicle -2.28602e-15 -1.82882e-14 0
rhumerus 17.8963 49.1692 -50.0703
rradius 106.371 0 0
rwrist -40.5601 0 0
rhand -7.05576 -387.982 0
rfingers 7.12502 0 0
rthumb 18.8172 302.908 0
3062
root -1.43551 15.9605 -34.1019 1087.25 4.54277 1.84444
lfemur -34.4523 4.14707 -3.1758
ltibia 53.9521 -0 0
lfoot -12.5709 -2.39102 0.00947739
ltoes -45.5981 0 0
rfemur -36.041 -4.6417 24.2065
rtibia 61.8736 0 0
rfoot -22.0169 -25.3277 0.0171867
rtoes -5.77364 0 0
lowerback 12.7334 0.20434 -1.74614
upperback -1.0482 0.123445 1.45754
thorax -8.2921 0.175343 2.51829
lowerneck 3.79768 -8.25758 -11.8708
upperneck -3.23993 -11.3435 9.76661
head -0.327637 -5.73359 4.85602
lclavicle -1.98785e-16 -7.95139e-15 0
lhumerus 9.80098 -43.7217 88.8247
lradius 70.8319 0 0
lwrist -21.3187 0 0
lhand -22.8497 396.508 0
lfingers 7.12502 0 0
lthumb 3.5882 -653.542 0
rclavicle -1.98785e-16 -7.95139e-15 0
rhumerus 16.074 49.756 -51.4162
rradius 106.425 0 0
rwrist -37.8548 0 0
rhand -5.85165 -387.074 0
rfingers 7.12502 0 0
rthumb 19.975 303.933 0
